<svg width="64" height="64" viewBox="0 0 64 64" fill="none" xmlns="http://www.w3.org/2000/svg">
  <path d="M32 34c9 0 17 8 17 16 0 5-4 8-9 8-3 0-5-1-8-1s-5 1-8 1c-5 0-9-3-9-8 0-8 8-16 17-16Z" fill="#D79A55"/>
  <ellipse cx="18" cy="25" rx="7" ry="10" fill="#D79A55" transform="rotate(-18 18 25)"/>
  <ellipse cx="30" cy="17" rx="7" ry="10" fill="#D79A55"/>
  <ellipse cx="46" cy="25" rx="7" ry="10" fill="#D79A55" transform="rotate(18 46 25)"/>
  <ellipse cx="55" cy="37" rx="6" ry="8" fill="#D79A55" transform="rotate(30 55 37)"/>
</svg>
